<?xml version="1.0" encoding="UTF-8"?>
<svg width="256" height="256" viewBox="0 0 256 256" xmlns="http://www.w3.org/2000/svg" role="img" aria-label="Inventory Management icon">
  <defs>
    <linearGradient id="gBg" x1="0" x2="1" y1="0" y2="1">
      <stop offset="0" stop-color="#6EE7B7"/>
      <stop offset="1" stop-color="#3B82F6"/>
    </linearGradient>
    <linearGradient id="gShelf" x1="0" x2="1" y1="0" y2="1">
      <stop offset="0" stop-color="#FFF7ED"/>
      <stop offset="1" stop-color="#FFE3B8"/>
    </linearGradient>
    <linearGradient id="gBox1" x1="0" x2="1" y1="0" y2="1">
      <stop offset="0" stop-color="#FFD86B"/>
      <stop offset="1" stop-color="#FF9F43"/>
    </linearGradient>
    <linearGradient id="gBox2" x1="0" x2="1" y1="0" y2="1">
      <stop offset="0" stop-color="#C7A2FF"/>
      <stop offset="1" stop-color="#7C4DFF"/>
    </linearGradient>
    <linearGradient id="gBox3" x1="0" x2="1" y1="0" y2="1">
      <stop offset="0" stop-color="#FFB86B"/>
      <stop offset="1" stop-color="#FF6B6B"/>
    </linearGradient>
    <linearGradient id="gChart" x1="0" x2="1" y1="0" y2="1">
      <stop offset="0" stop-color="#34D399"/>
      <stop offset="1" stop-color="#10B981"/>
    </linearGradient>

    <filter id="softShadow" x="-50%" y="-50%" width="200%" height="200%">
      <feDropShadow dx="0" dy="6" stdDeviation="8" flood-color="#000" flood-opacity="0.12"/>
    </filter>

    <style>
      .stroke { stroke: rgba(0,0,0,0.06); stroke-width:1; stroke-linejoin:round; stroke-linecap:round; }
      .muted { fill: rgba(0,0,0,0.06); }
    </style>
  </defs>

  <!-- Background rounded square -->
  <rect x="12" y="12" width="232" height="232" rx="32" fill="url(#gBg)" filter="url(#softShadow)" />

  <!-- Dashboard panel (left) -->
  <rect x="36" y="44" width="108" height="168" rx="12" fill="rgba(255,255,255,0.12)" class="stroke" />
  <!-- Header inside panel -->
  <rect x="46" y="54" width="88" height="14" rx="4" fill="rgba(255,255,255,0.18)" />
  <!-- List items -->
  <g transform="translate(46,76)">
    <rect x="0" y="0" width="70" height="10" rx="3" fill="rgba(255,255,255,0.14)"/>
    <rect x="0" y="18" width="90" height="10" rx="3" fill="rgba(255,255,255,0.12)"/>
    <rect x="0" y="36" width="78" height="10" rx="3" fill="rgba(255,255,255,0.12)"/>
    <rect x="0" y="54" width="60" height="10" rx="3" fill="rgba(255,255,255,0.12)"/>
  </g>

  <!-- Shelves area (right) -->
  <rect x="152" y="64" width="64" height="124" rx="10" fill="rgba(255,255,255,0.06)" class="stroke" />
  <!-- Three shelf lines -->
  <rect x="160" y="80" width="48" height="6" rx="3" fill="url(#gShelf)" class="stroke"/>
  <rect x="160" y="110" width="48" height="6" rx="3" fill="url(#gShelf)" class="stroke"/>
  <rect x="160" y="140" width="48" height="6" rx="3" fill="url(#gShelf)" class="stroke"/>

  <!-- Items on shelves: boxes and cans -->
  <!-- Top shelf items -->
  <g transform="translate(164,72)">
    <rect x="0" y="8" width="12" height="12" rx="2" fill="url(#gBox1)" class="stroke"/>
    <rect x="18" y="6" width="14" height="14" rx="3" fill="url(#gBox2)" class="stroke"/>
    <rect x="36" y="8" width="10" height="12" rx="2" fill="url(#gBox3)" class="stroke"/>
  </g>
  <!-- Middle shelf items -->
  <g transform="translate(164,102)">
    <rect x="0" y="8" width="20" height="12" rx="2" fill="url(#gBox2)" class="stroke"/>
    <rect x="26" y="6" width="16" height="16" rx="4" fill="url(#gBox1)" class="stroke"/>
  </g>
  <!-- Bottom shelf items -->
  <g transform="translate(164,132)">
    <rect x="0" y="8" width="28" height="12" rx="2" fill="url(#gBox3)" class="stroke"/>
  </g>

  <!-- Small analytics/chart overlay (top-right corner) -->
  <g transform="translate(184,40)">
    <rect x="-22" y="-18" width="44" height="36" rx="8" fill="rgba(255,255,255,0.10)" class="stroke"/>
    <!-- Bar chart -->
    <rect x="-14" y="-4" width="6" height="16" rx="1.5" fill="rgba(255,255,255,0.95)"/>
    <rect x="-6" y="-10" width="6" height="22" rx="1.5" fill="rgba(255,255,255,0.95)"/>
    <rect x="2" y="-12" width="6" height="24" rx="1.5" fill="url(#gChart)"/>
    <!-- Tiny sparkline -->
    <path d="M -18 6 L -12 2 L -6 4 L 0 0 L 6 3" fill="none" stroke="rgba(255,255,255,0.9)" stroke-width="1.5" stroke-linecap="round" stroke-linejoin="round"/>
  </g>

  <!-- Status indicator dot -->
  <circle cx="200" cy="196" r="6" fill="#10B981" stroke="rgba(0,0,0,0.06)" stroke-width="1"/>

  <!-- Gloss highlight -->
  <path d="M32 56 C80 24 176 24 224 56 L224 68 C176 40 80 40 32 68 Z" fill="rgba(255,255,255,0.06)" />

  <!-- Invisible rect for click area -->
  <rect x="0" y="0" width="256" height="256" fill="none"/>
</svg>
